# xmcd
#
# Track frame offsets:
#	150
#	14862
#	41897
#	89282
#	115818
#	129888
#	156739
#	172266
#	199182
#	221772
#	253417
#
# Disc length: 3520 seconds
#
# Revision: 1
# Processed by: cddbd v1.4PL0 Copyright (c) Steve Scherf et al.
# Submitted via: audiograbber 1.82.02
#
DISCID=ae0dbe0b
DTITLE=Robert Miles - 23 AM
DYEAR=1900
DGENRE=
TTITLE0=Introducing
TTITLE1=A New Flower
TTITLE2=Everyday Life
TTITLE3=Freedom
TTITLE4=Textures
TTITLE5=Enjoy
TTITLE6=Flying Away
TTITLE7=Heatwave
TTITLE8=Maresias
TTITLE9=Full Moon
TTITLE10=Leaving Behind...
EXTD=
EXTT0=
EXTT1=
EXTT2=
EXTT3=
EXTT4=
EXTT5=
EXTT6=
EXTT7=
EXTT8=
EXTT9=
EXTT10=
PLAYORDER=
